<?xml version="1.0" encoding="UTF-8"?>
<svg version="1.1" xmlns="http://www.w3.org/2000/svg" width="512" height="512">
<path d="M0 0 C5.6945051 5.28544802 10.15616982 10.66306657 13.06640625 17.91796875 C13.42347656 18.79839844 13.78054688 19.67882812 14.1484375 20.5859375 C17.45601921 32.59175537 15.61195219 45.50387308 9.78125 56.296875 C5.44658218 63.43277661 -0.46215338 69.18224856 -7.93359375 72.91796875 C-8.26359375 81.82796875 -8.59359375 90.73796875 -8.93359375 99.91796875 C-4.8019873 99.8708374 -4.8019873 99.8708374 -0.58691406 99.82275391 C8.5491627 99.72300094 17.68526453 99.65692758 26.82174301 99.60709572 C32.35720557 99.57588311 37.89210662 99.53359496 43.42724609 99.46533203 C48.77653717 99.3997796 54.12529072 99.36418711 59.4749527 99.34870529 C61.50819603 99.3376831 63.54141244 99.31616 65.57442474 99.28358841 C78.15927558 99.09011863 88.34520462 99.10577818 98.27313232 107.86489868 C103.77503123 113.39685289 107.15201188 120.40789219 107.1640625 128.23046875 C107.11572266 130.05578125 107.11572266 130.05578125 107.06640625 131.91796875 C107.85813232 131.89178467 108.6498584 131.86560059 109.46557617 131.83862305 C113.06148342 131.73452753 116.65707356 131.66959975 120.25390625 131.60546875 C122.12272461 131.54262695 122.12272461 131.54262695 124.02929688 131.47851562 C125.23134766 131.46240234 126.43339844 131.44628906 127.671875 131.4296875 C129.32932739 131.39041138 129.32932739 131.39041138 131.02026367 131.3503418 C135.23285059 132.13532734 136.46528762 133.52626537 139.06640625 136.91796875 C139.7924621 140.11123695 139.73991413 143.23048415 139.69750977 146.49414062 C139.70824272 147.93159386 139.70824272 147.93159386 139.7191925 149.39808655 C139.73608225 152.5614509 139.71667462 155.72339866 139.6953125 158.88671875 C139.69614117 161.08720009 139.69860047 163.28768136 139.70262146 165.48815918 C139.70547967 170.09825285 139.69077549 174.70786075 139.66333008 179.31787109 C139.62924778 185.22631686 139.63526558 191.13389394 139.65399265 197.04238129 C139.66456262 201.58574662 139.65562474 206.12890992 139.64060783 210.67225647 C139.63542558 212.85074768 139.63590834 215.02925999 139.64215279 217.20774841 C139.64760477 220.25289253 139.62722947 223.29679431 139.59985352 226.34179688 C139.60964233 227.69163414 139.60964233 227.69163414 139.61962891 229.06874084 C139.55683932 233.1774955 139.38311121 235.39198577 137.22209167 238.98100281 C134.27075478 241.63289208 132.47597712 241.495459 128.55078125 241.40625 C127.30039062 241.39013672 126.05 241.37402344 124.76171875 241.35742188 C123.45976562 241.31552734 122.1578125 241.27363281 120.81640625 241.23046875 C118.84027344 241.19663086 118.84027344 241.19663086 116.82421875 241.16210938 C113.57047221 241.10316469 110.31900954 241.02091928 107.06640625 240.91796875 C107.1128125 242.74521484 107.1128125 242.74521484 107.16015625 244.609375 C107.14487799 253.28933394 103.08245177 259.83862095 97.20703125 266.0078125 C88.6084129 273.6806672 77.91102522 274.21687806 66.91015625 274.11328125 C65.76728149 274.11045135 64.62440674 274.10762146 63.44689941 274.10470581 C59.81995893 274.093569 56.19327129 274.06847616 52.56640625 274.04296875 C50.09765983 274.03293056 47.62890952 274.02380618 45.16015625 274.015625 C39.12880979 273.9936509 33.0976508 273.95916578 27.06640625 273.91796875 C27.06640625 280.51796875 27.06640625 287.11796875 27.06640625 293.91796875 C29.61399658 293.89702148 32.16158691 293.87607422 34.78637695 293.85449219 C43.23601468 293.78799325 51.68566444 293.74394225 60.13549519 293.71072006 C65.2549412 293.68991114 70.37411742 293.66171666 75.4934082 293.61621094 C80.44066683 293.57251334 85.38766715 293.54878138 90.33510399 293.53845978 C92.2156194 293.53111112 94.09612185 293.51676164 95.97652626 293.49504852 C109.61247063 293.34396152 120.85511333 293.81020415 131.19140625 303.77734375 C139.12623965 312.83627855 139.36221348 323.95199269 139.32519531 335.43066406 C139.32790947 336.78494453 139.33147278 338.13922353 139.33581543 339.49349976 C139.34488771 343.15024 139.34141755 346.80686666 139.33505726 350.46360874 C139.32997458 354.29741777 139.33469461 358.13121743 139.33782959 361.96502686 C139.34146088 368.39727517 139.33669031 374.82947744 139.32714844 381.26171875 C139.31624696 388.69631477 139.31980507 396.13080123 139.33080125 403.56539464 C139.33987593 409.95708251 139.34115908 416.34873741 139.33592391 422.74042964 C139.33280758 426.55448246 139.33238598 430.36848376 139.33899689 434.18253326 C139.344773 437.76456974 139.34076869 441.34646468 139.32920837 444.92848587 C139.32530269 446.86948705 139.33124388 448.81050021 139.33746338 450.75149536 C139.33182373 451.906586 139.32618408 453.06167664 139.32037354 454.25177002 C139.31924246 455.75714262 139.31924246 455.75714262 139.31808853 457.29292679 C139.05746019 460.01127602 138.54658656 461.63808146 137.06640625 463.91796875 C134.48302348 465.20966014 132.63168138 465.04574474 129.73742771 465.04939651 C128.59970875 465.05323766 127.46198979 465.0570788 126.2897945 465.06103635 C125.0292174 465.06016987 123.7686403 465.05930338 122.46986389 465.05841064 C121.12559007 465.06099293 119.78131702 465.0640057 118.43704504 465.06741405 C114.73043867 465.07550324 111.02385165 465.07727468 107.3172375 465.07801151 C103.32467096 465.07985871 99.33211454 465.08740428 95.33955383 465.09414673 C86.60421362 465.10774352 77.86887798 465.11375667 69.13352895 465.11815739 C63.68306267 465.12091716 58.23259818 465.12515399 52.7821331 465.12966156 C37.70216133 465.14185528 22.62219099 465.15215485 7.54221439 465.15553665 C6.09378988 465.155866 6.09378988 465.155866 4.61610427 465.156202 C3.6481338 465.15642028 2.68016334 465.15663856 1.68286043 465.15686345 C-0.27872781 465.15730692 -2.24031605 465.15775349 -4.2019043 465.15820312 C-5.66143802 465.15853527 -5.66143802 465.15853527 -7.15045727 465.15887412 C-22.92664929 465.16282447 -38.70279519 465.18028522 -54.47896939 465.20356265 C-70.66195663 465.22724836 -86.84492069 465.23973721 -103.02792555 465.24090457 C-112.11986366 465.24182282 -121.21174166 465.24761294 -130.30366325 465.26572418 C-138.04362027 465.28108761 -145.7834986 465.28626791 -153.52346795 465.27798608 C-157.47520779 465.27406636 -161.42678898 465.27507313 -165.37850952 465.28904343 C-168.99255593 465.3017036 -172.60632322 465.30065507 -176.22036881 465.28845271 C-178.15466973 465.28554471 -180.08897513 465.29749089 -182.0232386 465.30987477 C-183.1635653 465.30328493 -184.30389201 465.29669508 -185.47877407 465.28990555 C-186.96090504 465.29080118 -186.96090504 465.29080118 -188.47297806 465.29171491 C-191.34904534 464.85486526 -192.19435934 464.19849052 -193.93359375 461.91796875 C-195.23113603 459.32288419 -195.06832764 457.43311733 -195.08076477 454.52592468 C-195.08792007 453.38080917 -195.09507538 452.23569366 -195.10244751 451.05587769 C-195.10513641 449.7930899 -195.10782532 448.53030212 -195.1105957 447.22924805 C-195.1168602 445.89045536 -195.12350699 444.55166441 -195.13050842 443.21287537 C-195.15157284 438.80599177 -195.16192076 434.39910777 -195.171875 429.9921875 C-195.17592325 428.47255752 -195.1800402 426.95292772 -195.18422508 425.43329811 C-195.20329089 418.28548062 -195.21751261 411.13767348 -195.22583705 403.98983544 C-195.235581 395.75985969 -195.26181971 387.53015494 -195.30233794 379.30027455 C-195.33261928 372.92895629 -195.3473177 366.55771509 -195.35061806 360.18632632 C-195.35295715 356.38688408 -195.36176535 352.58773083 -195.38707924 348.78836632 C-195.41057281 345.20383211 -195.41450921 341.61977265 -195.40431786 338.03518105 C-195.40359589 336.11370361 -195.42254202 334.19224915 -195.44238281 332.27087402 C-195.37492607 320.84514898 -193.46247908 310.18709538 -185.22265625 301.79296875 C-177.64862861 295.58898706 -170.14877096 293.76090664 -160.58496094 293.80444336 C-159.32587418 293.80422432 -159.32587418 293.80422432 -158.04135132 293.80400085 C-155.27103071 293.80469668 -152.5007776 293.81247368 -149.73046875 293.8203125 C-147.80804481 293.82217785 -145.88562039 293.8236012 -143.9631958 293.82460022 C-138.906318 293.82841618 -133.84946898 293.83823863 -128.79260254 293.8493042 C-123.63127024 293.8595381 -118.46993328 293.86410208 -113.30859375 293.86914062 C-103.18357908 293.8798617 -93.05859331 293.89745107 -82.93359375 293.91796875 C-82.93359375 287.31796875 -82.93359375 280.71796875 -82.93359375 273.91796875 C-84.44074951 273.93891602 -85.94790527 273.95986328 -87.50073242 273.98144531 C-93.1458163 274.05439193 -98.79085935 274.09996611 -104.4362793 274.13769531 C-106.86961904 274.15768697 -109.3029115 274.18488949 -111.73608398 274.21972656 C-142.33625788 274.64655976 -142.33625788 274.64655976 -152.93359375 266.23046875 C-158.18002006 261.07083993 -162.77351376 254.46474051 -162.9921875 246.88769531 C-162.99568948 244.89769369 -162.96675589 242.90769712 -162.93359375 240.91796875 C-164.17447754 240.95724487 -164.17447754 240.95724487 -165.44042969 240.99731445 C-169.18795793 241.10123706 -172.93518325 241.16628364 -176.68359375 241.23046875 C-177.98554688 241.27236328 -179.2875 241.31425781 -180.62890625 241.35742188 C-181.87929687 241.37353516 -183.1296875 241.38964844 -184.41796875 241.40625 C-185.57006836 241.43243408 -186.72216797 241.45861816 -187.90917969 241.4855957 C-190.93359375 240.91796875 -190.93359375 240.91796875 -193.08927917 238.98100281 C-195.6578846 234.71506792 -195.5025235 231.23468401 -195.46704102 226.34179688 C-195.47565659 225.38349472 -195.48427216 224.42519257 -195.4931488 223.43785095 C-195.5158251 220.2746977 -195.50906706 217.11242912 -195.5 213.94921875 C-195.50523457 211.74873593 -195.51151044 209.54825535 -195.51878357 207.34777832 C-195.52919068 202.73776688 -195.52462125 198.12806406 -195.51000977 193.51806641 C-195.49281576 187.60953624 -195.51632395 181.70197794 -195.55149937 175.79355621 C-195.57345521 171.2501989 -195.57203632 166.70707481 -195.56373405 162.16368103 C-195.56291366 159.98517287 -195.5697938 157.80664773 -195.58450508 155.62818909 C-195.60191829 152.58289753 -195.58743485 149.53936142 -195.56469727 146.49414062 C-195.57638947 145.59424911 -195.58808167 144.6943576 -195.60012817 143.76719666 C-195.53269264 139.32984191 -195.36541666 137.48104004 -192.58453369 133.85493469 C-189.30851538 131.46124188 -187.56446044 131.33429892 -183.5390625 131.4296875 C-182.33701172 131.44580078 -181.13496094 131.46191406 -179.89648438 131.47851562 C-178.65060547 131.52041016 -177.40472656 131.56230469 -176.12109375 131.60546875 C-174.22327148 131.63930664 -174.22327148 131.63930664 -172.28710938 131.67382812 C-169.16806756 131.73267797 -166.05143473 131.81485505 -162.93359375 131.91796875 C-162.96582031 130.70109375 -162.99804688 129.48421875 -163.03125 128.23046875 C-163.01919938 120.40789219 -159.64221873 113.39685289 -154.14031982 107.86489868 C-143.4085214 98.39654653 -131.92612044 99.11561247 -118.41796875 99.33203125 C-116.35004923 99.34324143 -114.28211361 99.35177299 -112.21417236 99.35775757 C-106.80844027 99.38051246 -101.40369717 99.43931923 -95.99835205 99.50598145 C-90.4677874 99.56769354 -84.93706075 99.59483404 -79.40625 99.625 C-68.58160008 99.68907658 -57.7576796 99.7912923 -46.93359375 99.91796875 C-46.8398925 95.54135834 -46.84647637 91.17038717 -46.87109375 86.79296875 C-46.82952148 84.93671875 -46.82952148 84.93671875 -46.78710938 83.04296875 C-46.69723163 76.33866587 -46.69723163 76.33866587 -49.92205811 70.78813171 C-52.2010258 69.28250711 -54.47257825 68.09286512 -56.93359375 66.91796875 C-64.36089432 60.35403273 -70.23020624 50.95987096 -71.1105957 40.89428711 C-71.53433907 26.12066877 -70.39951828 15.19388337 -59.93359375 3.91796875 C-43.75160872 -12.45858925 -18.10619591 -15.19106598 0 0 Z M-47.93359375 12.91796875 C-54.39489307 20.4850162 -56.46116498 27.46775772 -56.31640625 37.33203125 C-55.50553528 44.92774093 -51.84328263 51.10775687 -45.93359375 55.91796875 C-37.64817497 61.63148936 -31.08267183 62.88299861 -20.93359375 61.91796875 C-11.37197288 58.88592845 -5.61843042 52.53086079 -0.93359375 43.91796875 C1.47260422 36.69937483 1.17558123 28.21751321 -2.12109375 21.35546875 C-6.37242057 14.08783742 -12.47770015 8.62646128 -20.578125 6.08984375 C-31.06441065 3.80192688 -39.5436021 6.19457986 -47.93359375 12.91796875 Z M-32.93359375 76.91796875 C-32.93359375 84.50796875 -32.93359375 92.09796875 -32.93359375 99.91796875 C-29.63359375 99.91796875 -26.33359375 99.91796875 -22.93359375 99.91796875 C-22.93359375 92.32796875 -22.93359375 84.73796875 -22.93359375 76.91796875 C-26.23359375 76.91796875 -29.53359375 76.91796875 -32.93359375 76.91796875 Z M-143.08984375 118.63671875 C-143.53328125 119.22453125 -143.97671875 119.81234375 -144.43359375 120.41796875 C-144.89765625 121.00578125 -145.36171875 121.59359375 -145.83984375 122.19921875 C-147.8666693 125.38423032 -148.06282817 128.12415668 -148.08076477 131.79402161 C-148.08792007 132.79917313 -148.09507538 133.80432465 -148.10244751 134.8399353 C-148.10513641 135.94181183 -148.10782532 137.04368835 -148.1105957 138.17895508 C-148.1171669 139.34018387 -148.1237381 140.50141266 -148.13050842 141.6978302 C-148.15025279 145.54855409 -148.16190578 149.39923898 -148.171875 153.25 C-148.17595053 154.56366735 -148.18002605 155.87733471 -148.18422508 157.23081017 C-148.20327042 163.46504483 -148.21750314 169.6992677 -148.22583705 175.93352586 C-148.23560918 183.12442906 -148.26193042 190.31502441 -148.30233794 197.50581914 C-148.33251727 203.06771345 -148.3473076 208.62951958 -148.35061806 214.19149417 C-148.35296641 217.51174542 -148.36387623 220.83159264 -148.38707924 224.15177345 C-148.41137093 227.85769931 -148.41052346 231.56281808 -148.40356445 235.26879883 C-148.41637451 236.36460266 -148.42918457 237.46040649 -148.44238281 238.5894165 C-148.39280956 245.82578154 -147.38410152 249.28630932 -142.37109375 254.5625 C-136.79772326 259.09086352 -132.44009649 259.06590102 -125.45133972 259.05841064 C-124.15505196 259.06286733 -124.15505196 259.06286733 -122.83257657 259.06741405 C-119.9315875 259.07609814 -117.03063971 259.07760905 -114.12963867 259.07910156 C-112.051762 259.08372991 -109.97388618 259.08875459 -107.89601135 259.09414673 C-102.24719835 259.10727041 -96.59839724 259.11371554 -90.94957137 259.11815739 C-87.42106895 259.12108793 -83.89256977 259.12519269 -80.36406898 259.12966156 C-69.32600996 259.1433359 -58.28795837 259.15300308 -47.24989146 259.15686345 C-34.50451056 259.16134533 -21.75923684 259.1788996 -9.01388854 259.20786405 C0.83590376 259.22947194 10.68566588 259.23956724 20.53548163 259.24090457 C26.41937007 259.24195316 32.30315775 259.24787262 38.18702126 259.26572418 C43.72164114 259.28218953 49.25608435 259.28436776 54.79071999 259.27558517 C56.82122266 259.274814 58.85173478 259.27916805 60.88221359 259.28904343 C63.65608683 259.30174243 66.42933236 259.29589718 69.20320129 259.28546143 C70.00496396 259.29351783 70.80672663 259.30157423 71.63278514 259.30987477 C77.55022836 259.25787796 82.43434354 258.22495598 87.02734375 254.19921875 C87.49398437 253.61140625 87.960625 253.02359375 88.44140625 252.41796875 C88.92351562 251.83015625 89.405625 251.24234375 89.90234375 250.63671875 C92.02839691 247.49757986 92.19424348 244.75360602 92.20684814 241.07987976 C92.21255829 240.0831424 92.21826843 239.08640503 92.22415161 238.0594635 C92.22526947 236.96693771 92.22638733 235.87441193 92.22753906 234.7487793 C92.23250397 233.59730408 92.23746887 232.44582886 92.24258423 231.25946045 C92.25721754 227.44119677 92.26400978 223.62297464 92.26953125 219.8046875 C92.27382877 217.82472614 92.2781268 215.84476479 92.28250575 213.86480361 C92.29431643 208.34705978 92.30185394 202.82932601 92.30530095 197.31157082 C92.30978008 190.18128355 92.32732224 183.05118812 92.35630155 175.92095917 C92.37793682 170.40577227 92.38800623 164.89063926 92.38934207 159.37541038 C92.39038886 156.08317739 92.3977201 152.79116567 92.41416168 149.49896812 C92.43120356 145.82427792 92.42934614 142.15005541 92.42285156 138.4753418 C92.43667374 136.84566216 92.43667374 136.84566216 92.45077515 135.18305969 C92.41076746 127.96192551 91.59982496 123.45138746 86.31640625 118.16796875 C80.34044322 114.03076357 74.41120131 113.62336752 67.38870239 113.65727234 C66.11518773 113.65153402 66.11518773 113.65153402 64.81594551 113.64567977 C61.98416677 113.63539907 59.15259267 113.63933253 56.32080078 113.64331055 C54.285134 113.63896134 52.24946887 113.63377749 50.21380615 113.62782288 C44.6931128 113.61444393 39.17248796 113.613853 33.65178156 113.61638618 C29.03950382 113.61745666 24.4272399 113.6125705 19.81496513 113.60778075 C8.93180867 113.59668932 -1.95131328 113.59624608 -12.83447266 113.60229492 C-24.05379194 113.60833481 -35.27298581 113.59602242 -46.4922837 113.57472485 C-56.13240891 113.55709936 -65.77249424 113.55110901 -75.41263497 113.5543626 C-81.16686738 113.55617412 -86.92101033 113.5535522 -92.67522812 113.53964806 C-98.08761082 113.52705903 -103.49979828 113.52902412 -108.91217804 113.54205894 C-110.89507488 113.54442194 -112.87798552 113.54169999 -114.86086655 113.53343582 C-117.57477692 113.5229432 -120.28803517 113.53108914 -123.00192261 113.54374695 C-123.78024944 113.53637266 -124.55857628 113.52899838 -125.36048877 113.52140063 C-131.63247378 113.58263399 -138.07815286 114.64189268 -143.08984375 118.63671875 Z M-179.93359375 146.91796875 C-179.93359375 172.98796875 -179.93359375 199.05796875 -179.93359375 225.91796875 C-174.32359375 225.91796875 -168.71359375 225.91796875 -162.93359375 225.91796875 C-162.93359375 199.84796875 -162.93359375 173.77796875 -162.93359375 146.91796875 C-168.54359375 146.91796875 -174.15359375 146.91796875 -179.93359375 146.91796875 Z M107.06640625 146.91796875 C107.06640625 172.98796875 107.06640625 199.05796875 107.06640625 225.91796875 C112.67640625 225.91796875 118.28640625 225.91796875 124.06640625 225.91796875 C124.06640625 199.84796875 124.06640625 173.77796875 124.06640625 146.91796875 C118.45640625 146.91796875 112.84640625 146.91796875 107.06640625 146.91796875 Z M-68.93359375 273.91796875 C-68.93359375 280.51796875 -68.93359375 287.11796875 -68.93359375 293.91796875 C-41.87359375 293.91796875 -14.81359375 293.91796875 13.06640625 293.91796875 C13.06640625 287.31796875 13.06640625 280.71796875 13.06640625 273.91796875 C-13.99359375 273.91796875 -41.05359375 273.91796875 -68.93359375 273.91796875 Z M-177.93359375 316.91796875 C-180.70481024 322.80028136 -180.1995392 328.99164064 -180.16064453 335.34912109 C-180.16093658 336.59845428 -180.16122864 337.84778748 -180.16152954 339.13497925 C-180.16037765 342.54783398 -180.15036986 345.96044465 -180.13638163 349.37325621 C-180.1238513 352.94468175 -180.12270196 356.5161108 -180.12033081 360.08755493 C-180.1141228 366.84475285 -180.09772119 373.60188581 -180.07763183 380.35905516 C-180.05525168 388.05432289 -180.04427409 395.74959378 -180.03424096 403.44488597 C-180.01335433 419.26929089 -179.97668661 435.09360635 -179.93359375 450.91796875 C-162.11359375 450.91796875 -144.29359375 450.91796875 -125.93359375 450.91796875 C-125.88460937 446.28378906 -125.835625 441.64960938 -125.78515625 436.875 C-125.74976203 433.93552531 -125.71379759 430.99607971 -125.67578125 428.05664062 C-125.61552218 423.3931906 -125.55735175 418.72978118 -125.51171875 414.06616211 C-125.47478748 410.30536488 -125.42840657 406.54479107 -125.37553024 402.78418541 C-125.35702787 401.35094823 -125.34190461 399.91766324 -125.33024979 398.48435402 C-125.31331681 396.47360423 -125.28314903 394.46297918 -125.25244141 392.45239258 C-125.23911774 391.30877762 -125.22579407 390.16516266 -125.21206665 388.9868927 C-124.91070604 385.66573365 -124.38069358 382.36506858 -121.93359375 379.91796875 C-119.52453661 379.81586796 -117.14399646 379.77909208 -114.73428345 379.78425598 C-113.97192143 379.78199042 -113.20955941 379.77972487 -112.42409551 379.77739066 C-109.84993532 379.77102178 -107.27582739 379.77188186 -104.70166016 379.77270508 C-102.8640384 379.76971536 -101.02641728 379.76631328 -99.188797 379.76252747 C-94.18261275 379.75366366 -89.17644557 379.75134834 -84.17025423 379.75071168 C-79.99761885 379.74976447 -75.82498749 379.74608832 -71.65235364 379.74253958 C-61.81087694 379.7343858 -51.96940938 379.73195617 -42.12792969 379.73266602 C-31.96178402 379.7332669 -21.7956914 379.72271505 -11.62955916 379.70692235 C-2.91448739 379.69386417 5.800567 379.6884814 14.51564848 379.68912143 C19.72649918 379.68937694 24.93730278 379.68649639 30.14814377 379.67594337 C35.0482278 379.66629141 39.94821944 379.66616318 44.84830666 379.67346001 C46.64988781 379.67450951 48.45147464 379.67212143 50.25304604 379.66609955 C52.70651702 379.65842799 55.15966506 379.66299209 57.61312866 379.67073059 C58.33131535 379.66558703 59.04950204 379.66044346 59.78945196 379.65514404 C63.44667924 379.68075318 64.93317304 379.82914661 68.06640625 381.91796875 C68.46513367 384.77798462 68.46513367 384.77798462 68.4987793 388.47900391 C68.51406677 389.48893654 68.51406677 389.48893654 68.52966309 390.51927185 C68.5598996 392.74860845 68.56907474 394.97751618 68.578125 397.20703125 C68.59496389 398.75118449 68.61311306 400.29532395 68.63252258 401.83944702 C68.68011498 405.90661312 68.70986423 409.9737234 68.73596191 414.04107666 C68.77095191 418.91956278 68.82799066 423.79783439 68.88135529 428.67614746 C68.95997757 436.09006118 69.01050037 443.50369206 69.06640625 450.91796875 C87.21640625 450.91796875 105.36640625 450.91796875 124.06640625 450.91796875 C124.15679553 434.36699593 124.2304398 417.81623464 124.27365494 401.26508331 C124.29425624 393.57962693 124.32233002 385.89433511 124.36816406 378.20898438 C124.40810667 371.50828675 124.43385674 364.80770834 124.44276023 358.10689497 C124.44796251 354.56074224 124.46013821 351.01493048 124.48932648 347.46888733 C124.52169107 343.50458517 124.52236089 339.54061273 124.52050781 335.57617188 C124.54207947 333.82397339 124.54207947 333.82397339 124.56408691 332.03637695 C124.52733007 324.76336912 123.77134148 318.79536996 118.58356094 313.3660965 C114.61653349 309.8863339 111.53842421 308.79420602 106.37239361 308.78654099 C104.91640822 308.78077927 104.91640822 308.78077927 103.43100899 308.77490115 C102.36215661 308.77576763 101.29330423 308.77663412 100.19206238 308.77752686 C99.05850494 308.77455573 97.92494751 308.77158461 96.75703984 308.76852345 C92.93852375 308.7598151 89.12003893 308.7583264 85.30151367 308.75683594 C82.57192295 308.75274821 79.84233555 308.74720563 77.11274719 308.74179077 C69.6830085 308.72820392 62.2532752 308.72218222 54.82352614 308.71778011 C50.18528552 308.71501835 45.54704697 308.71078113 40.90880775 308.70627594 C28.06946919 308.69408294 15.2301323 308.6837836 2.39078808 308.68040085 C1.56890689 308.68018128 0.74702569 308.67996172 -0.09976099 308.6797355 C-0.92361948 308.67951722 -1.74747796 308.67929894 -2.59630185 308.67907405 C-4.26578001 308.67863058 -5.93525817 308.67818402 -7.60473633 308.67773438 C-8.84691714 308.67740223 -8.84691714 308.67740223 -10.11419251 308.67706338 C-23.5344824 308.67311487 -36.95471801 308.65565937 -50.37498692 308.63237485 C-64.1499642 308.6086676 -77.92491424 308.59619929 -91.69991225 308.59503293 C-99.43545245 308.59411583 -107.17092191 308.58835471 -114.90644264 308.57021332 C-121.49309678 308.55482079 -128.07965833 308.54968683 -134.66632704 308.55795142 C-138.02712038 308.56186098 -141.38757545 308.55928523 -144.74837112 308.54689407 C-148.39184214 308.5342466 -152.03483174 308.5400126 -155.67829895 308.55047607 C-156.74045917 308.54241967 -157.80261939 308.53436327 -158.89696628 308.52606273 C-167.19576422 308.58195327 -172.44127511 310.35769926 -177.93359375 316.91796875 Z M-110.93359375 393.91796875 C-110.93359375 412.72796875 -110.93359375 431.53796875 -110.93359375 450.91796875 C-56.48359375 450.91796875 -2.03359375 450.91796875 54.06640625 450.91796875 C54.06640625 432.10796875 54.06640625 413.29796875 54.06640625 393.91796875 C-0.38359375 393.91796875 -54.83359375 393.91796875 -110.93359375 393.91796875 Z " fill="#000000" transform="translate(283.93359375,28.08203125)"/>
<path d="M0 0 C6.6348326 4.71217592 11.00814858 10.87210198 13.58203125 18.59375 C14.61662355 30.62907056 13.85437622 40.07786823 5.7890625 49.7421875 C-0.60528238 55.991506 -8.57815581 58.73878342 -17.41796875 59.09375 C-26.25778169 58.73878342 -34.23065512 55.991506 -40.625 49.7421875 C-47.55303543 41.44061999 -49.54656296 33.15507457 -48.94140625 22.59765625 C-48.39233968 17.20440555 -46.52071644 13.01151264 -43.41796875 8.59375 C-43.04542969 8.01367188 -42.67289063 7.43359375 -42.2890625 6.8359375 C-32.88902315 -6.19965714 -13.09650643 -7.6167081 0 0 Z M-30.85546875 17.21875 C-34.12696889 22.19143021 -34.0142584 26.73851695 -33.41796875 32.59375 C-31.23270533 37.04521251 -28.47851665 39.78260145 -24.41796875 42.59375 C-19.43717492 44.25401461 -15.11523246 44.19278425 -10.23046875 42.46875 C-6.34600197 39.87910548 -3.53139854 36.82060959 -1.41796875 32.59375 C-0.89683704 27.36534666 -0.77523341 22.95338246 -3.04296875 18.15625 C-7.51378177 13.33247806 -11.55502324 10.89390803 -18.109375 10.4296875 C-23.48120937 10.81144223 -27.26873977 13.35611879 -30.85546875 17.21875 Z " fill="#000000" transform="translate(207.41796875,171.40625)"/>
<path d="M0 0 C6.03195488 4.22869564 10.07854706 10.38262711 12.3125 17.375 C13.47337508 28.19123028 12.89340745 37.27164622 6.3125 46.375 C0.58397267 53.23924844 -6.86924338 56.63629464 -15.671875 57.75390625 C-24.71582778 58.11707016 -32.79553489 55.96632112 -40 50.375 C-47.08258449 43.45305144 -50.25132308 35.53553278 -50.375 25.75 C-50.24618906 18.67788921 -48.80804579 13.24192669 -44.6875 7.375 C-44.31496094 6.79492188 -43.94242187 6.21484375 -43.55859375 5.6171875 C-33.33815469 -8.55610429 -13.59032579 -8.18146703 0 0 Z M-32.125 16 C-35.39650014 20.97268021 -35.28378965 25.51976695 -34.6875 31.375 C-32.50223658 35.82646251 -29.7480479 38.56385145 -25.6875 41.375 C-20.70670617 43.03526461 -16.38476371 42.97403425 -11.5 41.25 C-7.61553322 38.66035548 -4.80092979 35.60185959 -2.6875 31.375 C-2.16636829 26.14659666 -2.04476466 21.73463246 -4.3125 16.9375 C-8.78331302 12.11372806 -12.82455449 9.67515803 -19.37890625 9.2109375 C-24.75074062 9.59269223 -28.53827102 12.13736879 -32.125 16 Z " fill="#000000" transform="translate(340.6875,172.625)"/>
<path d="M0 0 C0.85086685 -0.00846954 1.7017337 -0.01693909 2.5783844 -0.02566528 C5.38972947 -0.04905544 8.2005279 -0.05005698 11.01196289 -0.04882812 C12.96725178 -0.05592839 14.92253859 -0.06362719 16.87782288 -0.07189941 C20.97589917 -0.08534879 25.0737828 -0.08691088 29.171875 -0.08105469 C34.4224128 -0.07515761 39.67202624 -0.10574845 44.92238522 -0.14617157 C48.96046424 -0.17202603 52.99832002 -0.17492804 57.03647041 -0.17127991 C58.97216681 -0.17297321 60.90787329 -0.18263591 62.84348869 -0.20042419 C65.55123569 -0.22257012 68.25710297 -0.212935 70.96484375 -0.1953125 C71.76344818 -0.20857574 72.56205261 -0.22183899 73.38485718 -0.23550415 C77.41344974 -0.17460952 79.33919341 0.26140462 82.5796051 2.73181152 C84.54711914 5.41992188 84.54711914 5.41992188 84.60961914 9.04492188 C83.40639646 12.86692335 83.0023464 13.57391313 79.54711914 15.41992188 C76.65783501 15.72074083 73.98371529 15.85042033 71.09423828 15.83984375 C69.817938 15.85254807 69.817938 15.85254807 68.51585388 15.86550903 C65.70450881 15.88889919 62.89371038 15.88990073 60.08227539 15.88867188 C58.1269865 15.89577214 56.17169969 15.90347094 54.21641541 15.91174316 C50.11833911 15.92519254 46.02045548 15.92675463 41.92236328 15.92089844 C36.67182548 15.91500136 31.42221204 15.9455922 26.17185307 15.98601532 C22.13377404 16.01186978 18.09591826 16.01477179 14.05776787 16.01112366 C12.12207147 16.01281696 10.18636499 16.02247966 8.25074959 16.04026794 C5.54300259 16.06241387 2.83713531 16.05277875 0.12939453 16.03515625 C-0.6692099 16.04841949 -1.46781433 16.06168274 -2.2906189 16.0753479 C-6.31921146 16.01445327 -8.24495513 15.57843913 -11.48536682 13.10803223 C-13.45288086 10.41992188 -13.45288086 10.41992188 -13.51538086 6.79492188 C-11.31154918 -0.20548464 -6.60013261 -0.02415898 0 0 Z " fill="#000000" transform="translate(220.452880859375,251.580078125)"/>
<path d="M0 0 C4.21359597 3.1336407 7.11624451 6.75263154 8.5546875 11.84375 C9.60814379 19.12828819 7.96649533 24.82329934 3.609375 30.6953125 C-0.64766808 34.8556046 -4.74464804 36.51716038 -10.640625 36.7578125 C-16.35478477 36.53429945 -20.50432895 34.75878872 -24.890625 31.0703125 C-29.4962507 25.56914847 -30.71552264 21.22134007 -30.484375 14.1328125 C-29.85510834 9.0986792 -28.19386831 5.29313864 -24.45703125 1.81640625 C-17.16612837 -3.68704947 -8.0622674 -4.61161695 0 0 Z M-13.140625 12.3828125 C-15.37907515 14.21196891 -15.37907515 14.21196891 -15.453125 16.8828125 C-15.35 17.7078125 -15.246875 18.5328125 -15.140625 19.3828125 C-12.45390752 21.61019357 -12.45390752 21.61019357 -10.078125 21.2578125 C-7.56779083 20.1241132 -7.11371298 18.89662312 -6.140625 16.3828125 C-7.36652692 14.30303953 -7.36652692 14.30303953 -9.140625 12.3828125 C-10.460625 12.3828125 -11.780625 12.3828125 -13.140625 12.3828125 Z " fill="#000000" transform="translate(390.140625,348.6171875)"/>
<path d="M0 0 C4.53169395 3.81074264 7.62845579 7.58993672 8.28515625 13.6171875 C8.50854204 20.78495776 7.41978386 25.10970261 2.75 30.6875 C-2.2926675 34.92792494 -7.21721776 36.60286029 -13.73046875 36.34765625 C-19.04374931 35.5337458 -23.29262445 33.10541727 -26.875 29.125 C-30.47870864 23.82542847 -31.55081391 19.38944133 -31 13 C-29.5987339 6.4395269 -26.49462566 2.72849599 -21 -1 C-14.3140359 -4.87082132 -6.49299925 -3.62109573 0 0 Z M-14.75 13.25 C-16.2330753 14.92391615 -16.2330753 14.92391615 -15.8125 17.0625 C-15.06529664 19.18712526 -15.06529664 19.18712526 -13 21 C-9.69316534 20.71016731 -9.69316534 20.71016731 -7 19 C-6.66656449 16.54207971 -6.66656449 16.54207971 -7 14 C-10.11408827 11.92394116 -11.55901822 10.9707273 -14.75 13.25 Z " fill="#000000" transform="translate(144,349)"/>
</svg>
